<svg width="257" height="48" viewBox="0 0 257 48" fill="none" xmlns="http://www.w3.org/2000/svg">
<g clip-path="url(#clip0)">
<path fill-rule="evenodd" clip-rule="evenodd" d="M14.4083 41.0646H20.3838H21.8729H25.1511H40.0474V25.9336H24.9138H21.8729V22.9282H6.73926V33.3955C6.73926 37.6036 10.2002 41.0646 14.4083 41.0646Z" fill="#00BFFF"/>
<path fill-rule="evenodd" clip-rule="evenodd" d="M5.68091 6.73909C2.31818 7.51091 0 10.7127 0 14.31C0 17.8282 2.41364 21.03 5.68091 21.87V8.58818V6.73909Z" fill="#81BE00"/>
<path fill-rule="evenodd" clip-rule="evenodd" d="M21.87 5.68091C21.0981 2.31818 17.8936 0 14.2963 0C10.7781 0 7.57633 2.41364 6.73633 5.68091H20.0181H21.87Z" fill="#00BFFF"/>
<path fill-rule="evenodd" clip-rule="evenodd" d="M41.1055 41.0646C44.4682 40.2927 46.7864 37.0909 46.7864 33.4936C46.7864 29.9755 44.3727 26.7736 41.1055 25.9336V39.2155V41.0646V41.0646Z" fill="#00BFFF"/>
<path fill-rule="evenodd" clip-rule="evenodd" d="M24.9163 42.1227C25.6881 45.4855 28.8899 47.8036 32.4872 47.8036C36.0054 47.8036 39.2072 45.39 40.0472 42.1227H26.7654H24.9163Z" fill="#81BE00"/>
<path fill-rule="evenodd" clip-rule="evenodd" d="M32.3784 6.73909H26.4029H24.9138H21.6356H6.73926V21.87H21.8729H24.9138V24.8755H40.0474V14.4082C40.0474 10.1973 36.5865 6.73909 32.3784 6.73909Z" fill="#81BE00"/>
<path fill-rule="evenodd" clip-rule="evenodd" d="M53.509 17.1682L56.5663 15.2345L59.8499 10.1536L61.2436 10.38V15.7773H70.1945L70.0608 19.2409L61.2463 18.8345V30.6627C61.2463 32.3727 61.6363 33.5864 62.4163 34.3064C63.1963 35.0264 64.1999 35.3836 65.4299 35.3836C66.4199 35.3836 67.3118 35.25 68.1054 34.98C68.899 34.71 69.7172 34.32 70.5572 33.81L71.9072 36.8236C70.9772 37.4836 69.9654 37.9636 68.8718 38.2609C67.7781 38.5609 66.4799 38.7109 64.9827 38.7109C62.4027 38.7109 60.4336 38.0373 59.0699 36.6873C57.7063 35.3373 57.0245 33.3436 57.0245 30.7064V19.2355L53.5172 18.7391V17.1682H53.509Z" fill="black"/>
<path fill-rule="evenodd" clip-rule="evenodd" d="M92.0072 24.8127C91.9772 22.5791 91.4235 20.9918 90.349 20.0564C89.2717 19.1209 87.5235 18.6518 85.1044 18.6518C84.2072 18.6518 83.3181 18.78 82.4344 19.0364C81.5535 19.2927 80.7681 19.68 80.0808 20.1927C79.3935 20.7055 78.8181 21.3491 78.3544 22.1182C77.8908 22.89 77.6153 23.7873 77.5253 24.8155H92.0072V24.8127ZM77.5717 28.05C77.6617 29.28 77.9481 30.3518 78.4281 31.2655C78.9081 32.1818 79.5381 32.9291 80.3153 33.5155C81.0953 34.0991 81.9872 34.5355 82.9908 34.8191C83.9944 35.1027 85.0363 35.2473 86.1163 35.2473C87.7063 35.2473 89.1081 35.1191 90.3217 34.8655C91.5353 34.6118 92.7272 34.1536 93.8972 33.4936L95.1108 36.9109C94.3608 37.2709 93.649 37.5627 92.9753 37.7864C92.299 38.0127 91.6035 38.1927 90.8835 38.3264C90.1635 38.4627 89.3917 38.5582 88.5681 38.6182C87.7444 38.6782 86.8363 38.7082 85.8463 38.7082C83.8063 38.7082 82.009 38.4382 80.449 37.8982C78.889 37.3582 77.5772 36.5782 76.5135 35.5609C75.4499 34.5409 74.6399 33.3109 74.0835 31.8736C73.5272 30.4336 73.2517 28.8327 73.2517 27.0627C73.2517 25.3227 73.5572 23.7273 74.1735 22.2736C74.7872 20.82 75.649 19.5818 76.759 18.5645C77.8663 17.5445 79.1644 16.7509 80.6481 16.1809C82.1317 15.6109 83.7599 15.3273 85.5272 15.3273C87.3272 15.3273 88.8844 15.5591 90.2044 16.0255C91.5244 16.4891 92.6181 17.1355 93.4881 17.9591C94.3581 18.7827 95.0017 19.7645 95.4217 20.9045C95.8417 22.0445 96.0517 23.2882 96.0517 24.6382C96.0517 25.2682 96.0217 25.8464 95.9617 26.37C95.9017 26.8936 95.7954 27.4582 95.6454 28.0555H77.5717V28.05Z" fill="black"/>
<path fill-rule="evenodd" clip-rule="evenodd" d="M104.419 15.7718L104.689 19.3255C105.769 17.8855 106.936 16.86 108.196 16.2436C109.456 15.63 110.894 15.3218 112.514 15.3218C114.071 15.3218 115.377 15.5509 116.427 16.0091C117.477 16.4673 118.481 17.3046 119.441 18.5182L116.607 21.0764C115.977 20.2964 115.274 19.7209 114.494 19.3446C113.714 18.9709 112.904 18.7827 112.066 18.7827C110.386 18.7827 109.023 19.1127 107.973 19.7755C106.923 20.4355 105.919 21.4418 104.959 22.7946V38.2555H100.775V15.7718H104.419Z" fill="black"/>
<path fill-rule="evenodd" clip-rule="evenodd" d="M137.836 27.5564C135.237 27.6164 133.05 27.7582 131.272 27.9818C129.494 28.2055 127.874 28.5109 126.409 28.8982C125.812 29.6127 125.512 30.5073 125.512 31.5818C125.512 32.8036 125.894 33.72 126.655 34.3309C127.415 34.9418 128.498 35.2473 129.903 35.2473C131.397 35.2473 132.777 35.0236 134.048 34.5764C135.316 34.1291 136.579 33.3682 137.834 32.2964V27.5564H137.836ZM122.591 17.3018C124.271 16.6118 125.823 16.11 127.246 15.7964C128.67 15.4827 130.312 15.3245 132.172 15.3245C135.499 15.3245 137.951 15.9409 139.525 17.1682C141.098 18.3982 141.886 20.3918 141.886 23.1491V32.55C141.886 33.63 142.066 34.3555 142.426 34.7318C142.786 35.1055 143.536 35.2936 144.674 35.2936V38.2609C144.164 38.4109 143.692 38.5227 143.258 38.5991C142.825 38.6727 142.306 38.7109 141.706 38.7109C140.776 38.7109 140.043 38.3809 139.503 37.7209C138.963 37.0609 138.649 36.1609 138.559 35.0236C136.492 37.4836 133.402 38.7109 129.295 38.7109C126.657 38.7109 124.655 38.0973 123.292 36.8673C121.928 35.6373 121.246 33.96 121.246 31.83C121.246 30.81 121.405 29.8827 121.718 29.0427C122.032 28.2027 122.58 27.3491 123.36 26.4791C124.38 26.1791 125.405 25.9091 126.442 25.6691C127.475 25.4291 128.577 25.2355 129.747 25.0855C130.917 24.9355 132.161 24.8155 133.481 24.7255C134.801 24.6355 136.255 24.5755 137.845 24.5455V23.2855C137.845 21.7255 137.416 20.5882 136.563 19.8682C135.709 19.1482 134.187 18.7882 131.997 18.7882C129.18 18.7882 126.346 19.4018 123.496 20.6318L122.591 17.3018Z" fill="black"/>
<path fill-rule="evenodd" clip-rule="evenodd" d="M146.337 15.7718H150.655L156.679 34.3473H157.039L163.023 15.7718H166.44L172.601 34.3473H172.961L178.672 15.7718H182.856L175.301 38.2609H169.857L164.82 22.7891H164.55L159.469 38.2609H153.892L146.337 15.7718Z" fill="black"/>
<path fill-rule="evenodd" clip-rule="evenodd" d="M188.476 27.0164C188.476 29.61 189.229 31.6527 190.732 33.1445C192.235 34.6336 194.31 35.3809 196.955 35.3809C199.601 35.3809 201.674 34.6364 203.179 33.1445C204.682 31.6527 205.435 29.61 205.435 27.0164C205.435 24.4227 204.682 22.38 203.179 20.8882C201.676 19.3964 199.601 18.6518 196.955 18.6518C194.31 18.6518 192.235 19.3964 190.732 20.8882C189.229 22.38 188.476 24.4227 188.476 27.0164ZM209.479 27.0164C209.479 28.8164 209.149 30.4336 208.492 31.8736C207.832 33.3136 206.943 34.5436 205.822 35.5609C204.701 36.5809 203.375 37.3609 201.848 37.8982C200.321 38.4382 198.69 38.7082 196.955 38.7082C195.221 38.7082 193.587 38.4382 192.063 37.8982C190.536 37.3582 189.213 36.5782 188.089 35.5609C186.968 34.5409 186.076 33.3109 185.419 31.8736C184.762 30.4336 184.432 28.8164 184.432 27.0164C184.432 25.2164 184.762 23.5991 185.419 22.1591C186.076 20.7191 186.968 19.4918 188.089 18.4718C189.21 17.4518 190.536 16.6718 192.063 16.1318C193.587 15.5918 195.221 15.3218 196.955 15.3218C198.69 15.3218 200.324 15.5918 201.848 16.1318C203.375 16.6718 204.698 17.4518 205.822 18.4718C206.943 19.4918 207.835 20.7218 208.492 22.1591C209.149 23.5991 209.479 25.2191 209.479 27.0164Z" fill="black"/>
<path fill-rule="evenodd" clip-rule="evenodd" d="M217.89 15.7718L218.16 19.3255C219.24 17.8855 220.407 16.86 221.667 16.2436C222.927 15.63 224.365 15.3218 225.985 15.3218C227.542 15.3218 228.848 15.5509 229.898 16.0091C230.948 16.4673 231.952 17.3046 232.912 18.5182L230.078 21.0764C229.448 20.2964 228.745 19.7209 227.965 19.3446C227.185 18.9709 226.375 18.7827 225.537 18.7827C223.857 18.7827 222.494 19.1127 221.444 19.7755C220.394 20.4355 219.39 21.4418 218.43 22.7946V38.2555H214.246V15.7718H217.89Z" fill="black"/>
<path fill-rule="evenodd" clip-rule="evenodd" d="M239.566 5.43V25.1291L243.166 22.7427L250.991 15.7718H255.892L255.982 16.2218L246.224 24.7227L256.432 37.9009L256.298 38.2609H251.575L243.03 26.7927L239.566 28.7264V38.2609H235.429V5.43H239.566Z" fill="black"/>
</g>
<defs>
<clipPath id="clip0">
<rect width="256.636" height="48" fill="white"/>
</clipPath>
</defs>
</svg>
